<svg width="16" height="16" viewBox="0 0 16 16" fill="none" xmlns="http://www.w3.org/2000/svg">
<path d="M8.9375 4C8.9375 4.51777 8.51777 4.9375 8 4.9375C7.48223 4.9375 7.0625 4.51777 7.0625 4C7.0625 3.48223 7.48223 3.0625 8 3.0625C8.51777 3.0625 8.9375 3.48223 8.9375 4Z" fill="#232B34" stroke="#232B34" stroke-width="0.125"/>
<path d="M8 9C8.55228 9 9 8.55228 9 8C9 7.44772 8.55228 7 8 7C7.44772 7 7 7.44772 7 8C7 8.55228 7.44772 9 8 9Z" fill="#232B34"/>
<path d="M8 13C8.55228 13 9 12.5523 9 12C9 11.4477 8.55228 11 8 11C7.44772 11 7 11.4477 7 12C7 12.5523 7.44772 13 8 13Z" fill="#232B34"/>
</svg>
