<svg width="20" height="20" viewBox="0 0 20 20" fill="none" xmlns="http://www.w3.org/2000/svg">
<path d="M16.25 2.49997H3.75005C3.41864 2.50035 3.10092 2.63217 2.86658 2.8665C2.63224 3.10084 2.50043 3.41857 2.50005 3.74997V13.7479L2.49997 13.7503L2.50005 16.25C2.50043 16.5814 2.63224 16.8991 2.86658 17.1334C3.10092 17.3678 3.41864 17.4996 3.75005 17.5H16.25C16.5815 17.4996 16.8992 17.3678 17.1335 17.1334C17.3679 16.8991 17.4997 16.5814 17.5 16.25V3.74997C17.4997 3.41857 17.3679 3.10084 17.1335 2.8665C16.8992 2.63217 16.5815 2.50035 16.25 2.49997ZM14.0089 8.74997C13.7743 8.5159 13.4564 8.38445 13.125 8.38445C12.7936 8.38445 12.4757 8.5159 12.2411 8.74997L8.75005 12.2411L7.13392 10.625C6.89927 10.3909 6.58141 10.2595 6.25001 10.2595C5.91862 10.2595 5.60075 10.3909 5.36611 10.625L3.75005 12.241V3.74997H16.25L16.2505 10.9915L14.0089 8.74997Z" fill="#232B34"/>
</svg>
