<svg width="18" height="16" viewBox="0 0 18 16" fill="none" xmlns="http://www.w3.org/2000/svg">
<path d="M6.5 13.25C6.99711 13.2506 7.47369 13.4483 7.8252 13.7998C8.1767 14.1513 8.37443 14.6279 8.375 15.125C8.375 15.2908 8.44085 15.4497 8.55806 15.5669C8.67527 15.6842 8.83424 15.75 9 15.75C9.16576 15.75 9.32473 15.6842 9.44194 15.5669C9.55915 15.4497 9.625 15.2908 9.625 15.125C9.62557 14.6279 9.8233 14.1513 10.1748 13.7998C10.5263 13.4483 11.0029 13.2506 11.5 13.25H16.5C16.8314 13.2496 17.1491 13.1178 17.3835 12.8835C17.6178 12.6491 17.7496 12.3314 17.75 12V2C17.7496 1.6686 17.6178 1.35087 17.3835 1.11654C17.1491 0.882197 16.8314 0.750379 16.5 0.75H12.75C11.9215 0.750941 11.1272 1.08048 10.5413 1.66633C9.95548 2.25218 9.62594 3.04649 9.625 3.875V10.125C9.625 10.2908 9.55915 10.4497 9.44194 10.5669C9.32473 10.6842 9.16576 10.75 9 10.75C8.83424 10.75 8.67527 10.6842 8.55806 10.5669C8.44085 10.4497 8.375 10.2908 8.375 10.125V3.875C8.37406 3.04649 8.04452 2.25218 7.45867 1.66633C6.87282 1.08048 6.07851 0.750941 5.25 0.75H1.5C1.1686 0.750379 0.850874 0.882197 0.616535 1.11654C0.382197 1.35087 0.250379 1.6686 0.25 2V12C0.250379 12.3314 0.382197 12.6491 0.616535 12.8835C0.850874 13.1178 1.1686 13.2496 1.5 13.25H6.5Z" fill="#AEAFBB"/>
</svg>
