<svg width="20" height="20" viewBox="0 0 20 20" fill="none" xmlns="http://www.w3.org/2000/svg">
<path d="M10.0001 1.875C8.39315 1.875 6.82227 2.35152 5.48612 3.24431C4.14997 4.1371 3.10857 5.40605 2.4936 6.8907C1.87864 8.37535 1.71774 10.009 2.03125 11.5851C2.34475 13.1612 3.11858 14.6089 4.25488 15.7452C5.39119 16.8815 6.83892 17.6554 8.41502 17.9689C9.99111 18.2824 11.6248 18.1215 13.1094 17.5065C14.5941 16.8916 15.863 15.8502 16.7558 14.514C17.6486 13.1779 18.1251 11.607 18.1251 10C18.1227 7.84586 17.2659 5.78065 15.7427 4.25745C14.2195 2.73425 12.1543 1.87744 10.0001 1.875ZM10.0002 15C9.81475 15 9.63349 14.945 9.47932 14.842C9.32515 14.739 9.20499 14.5926 9.13403 14.4213C9.06307 14.25 9.04451 14.0615 9.08068 13.8796C9.11686 13.6978 9.20614 13.5307 9.33726 13.3996C9.46837 13.2685 9.63541 13.1792 9.81727 13.143C9.99913 13.1069 10.1876 13.1254 10.3589 13.1964C10.5302 13.2673 10.6767 13.3875 10.7797 13.5417C10.8827 13.6959 10.9377 13.8771 10.9377 14.0625C10.9377 14.3112 10.8389 14.5496 10.6631 14.7254C10.4873 14.9013 10.2488 15 10.0002 15ZM10.6251 11.1804V11.2504C10.6251 11.4161 10.5593 11.5751 10.4421 11.6923C10.3249 11.8095 10.1659 11.8754 10.0001 11.8754C9.83437 11.8754 9.6754 11.8095 9.55819 11.6923C9.44098 11.5751 9.37513 11.4161 9.37513 11.2504V10.6254C9.37514 10.4596 9.44099 10.3007 9.5582 10.1834C9.67541 10.0662 9.83437 10.0004 10.0001 10.0004C10.3092 10.0004 10.6113 9.90874 10.8682 9.73705C11.1252 9.56536 11.3254 9.32133 11.4437 9.03582C11.562 8.75032 11.5929 8.43615 11.5326 8.13305C11.4723 7.82996 11.3235 7.55155 11.105 7.33303C10.8865 7.11451 10.6081 6.96569 10.305 6.9054C10.0019 6.84511 9.6877 6.87606 9.40219 6.99432C9.11668 7.11258 8.87265 7.31285 8.70096 7.5698C8.52927 7.82675 8.43763 8.12885 8.43763 8.43788C8.43763 8.60364 8.37178 8.76261 8.25457 8.87982C8.13736 8.99703 7.97839 9.06288 7.81263 9.06288C7.64687 9.06288 7.4879 8.99703 7.37069 8.87982C7.25348 8.76261 7.18763 8.60364 7.18763 8.43788C7.1877 7.90845 7.3372 7.38979 7.61894 6.94154C7.90069 6.4933 8.30323 6.13369 8.78027 5.90406C9.25731 5.67443 9.78948 5.58411 10.3156 5.64349C10.8417 5.70287 11.3403 5.90954 11.7542 6.23972C12.168 6.56991 12.4803 7.0102 12.655 7.50997C12.8298 8.00973 12.8599 8.54867 12.742 9.0648C12.624 9.58093 12.3628 10.0533 11.9883 10.4275C11.6138 10.8018 11.1413 11.0628 10.6251 11.1804Z" fill="#AEAFBB"/>
</svg>
