<svg width="20" height="20" viewBox="0 0 20 20" fill="none" xmlns="http://www.w3.org/2000/svg">
<path d="M16.25 2.5H3.74997C3.41857 2.50038 3.10084 2.6322 2.8665 2.86654C2.63217 3.10087 2.50035 3.4186 2.49997 3.75V8.33336C2.49997 15.3219 8.42389 17.6399 9.6114 18.0337C9.8634 18.1191 10.1365 18.1191 10.3885 18.0337C11.576 17.6399 17.5 15.3219 17.5 8.33336V3.75C17.4996 3.4186 17.3678 3.10087 17.1334 2.86654C16.8991 2.6322 16.5814 2.50038 16.25 2.5ZM9.37497 6.875C9.37497 6.70924 9.44082 6.55027 9.55803 6.43306C9.67524 6.31585 9.83421 6.25 9.99997 6.25C10.1657 6.25 10.3247 6.31585 10.4419 6.43306C10.5591 6.55027 10.625 6.70924 10.625 6.875V10C10.625 10.1658 10.5591 10.3247 10.4419 10.4419C10.3247 10.5592 10.1657 10.625 9.99997 10.625C9.83421 10.625 9.67524 10.5592 9.55803 10.4419C9.44082 10.3247 9.37497 10.1658 9.37497 10V6.875ZM9.99997 13.75C9.81455 13.75 9.63329 13.695 9.47912 13.592C9.32495 13.489 9.20479 13.3426 9.13383 13.1713C9.06288 13 9.04431 12.8115 9.08048 12.6296C9.11666 12.4477 9.20595 12.2807 9.33706 12.1496C9.46817 12.0185 9.63521 11.9292 9.81707 11.893C9.99893 11.8568 10.1874 11.8754 10.3587 11.9464C10.53 12.0173 10.6765 12.1375 10.7795 12.2917C10.8825 12.4458 10.9375 12.6271 10.9375 12.8125C10.9375 13.0611 10.8387 13.2996 10.6629 13.4754C10.4871 13.6512 10.2486 13.75 9.99997 13.75Z" fill="#C82C1B"/>
</svg>
