<svg width="14" height="18" viewBox="0 0 14 18" fill="none" xmlns="http://www.w3.org/2000/svg">
<path d="M13.6358 5.48013L13.635 5.47938L13.635 5.47937L9.26533 1.10967C9.26255 1.1069 9.26113 1.10568 9.25886 1.10374C9.25669 1.10188 9.25373 1.09935 9.24806 1.09414L9.24803 1.09412C9.24465 1.09101 9.24183 1.08838 9.23934 1.08605C9.23401 1.08107 9.23019 1.0775 9.22554 1.07368L9.27196 1.01729M13.6358 5.48013L9.2202 1.06964C9.22181 1.07075 9.22281 1.07145 9.22571 1.07382L9.27196 1.01729M13.6358 5.48013C13.6886 5.53141 13.7306 5.59279 13.7592 5.66061C13.7878 5.72829 13.8026 5.80101 13.8026 5.87448C13.8026 5.87469 13.8025 5.87511 13.8025 5.87585L13.8024 5.87633C13.8023 5.87802 13.8021 5.88177 13.802 5.88569L13.802 5.88569M13.6358 5.48013L13.802 5.88569M9.27196 1.01729C9.26844 1.01441 9.26477 1.01175 9.2611 1.00909C9.25864 1.00731 9.25618 1.00552 9.25376 1.00367M9.27196 1.01729C9.27846 1.02264 9.28461 1.02838 9.29075 1.03412C9.29298 1.0362 9.2952 1.03827 9.29744 1.04033C9.29985 1.04254 9.30229 1.04468 9.30474 1.04683C9.30889 1.05046 9.31304 1.05409 9.31697 1.05803L9.25376 1.00367M9.25376 1.00367C9.25225 1.00251 9.25074 1.00136 9.24924 1.0002C9.24054 0.993521 9.23185 0.98685 9.22275 0.980705C9.21999 0.978858 9.21713 0.977184 9.21427 0.975514C9.21212 0.974253 9.20997 0.972994 9.20787 0.971664M9.25376 1.00367L9.15942 0.94397C9.16103 0.944791 9.16267 0.94554 9.16431 0.94629C9.16625 0.947178 9.1682 0.948068 9.1701 0.949081M9.20787 0.971664C9.19547 0.963845 9.18307 0.956063 9.1701 0.949081M9.20787 0.971664L9.16881 1.03338C9.16884 1.0334 9.16887 1.03342 9.16891 1.03344M9.20787 0.971664L9.16891 1.03344M9.1701 0.949081L9.13549 1.01339C9.13563 1.01347 9.13578 1.01355 9.13593 1.01363M9.1701 0.949081L9.13578 1.01355C9.13597 1.01365 9.13608 1.01371 9.13593 1.01363M9.13593 1.01363C9.14622 1.01919 9.15647 1.0256 9.16891 1.03344M9.13593 1.01363C9.13577 1.01356 9.13532 1.01334 9.13438 1.01291L9.13394 1.01272C9.13244 1.01203 9.12933 1.01061 9.12619 1.00901L9.12595 1.00889C9.11237 1.00188 9.09976 0.995741 9.08731 0.990521M9.16891 1.03344C9.17216 1.0355 9.17551 1.03746 9.17756 1.03865L9.17836 1.03912L9.18189 1.04125C9.18196 1.04129 9.18203 1.04134 9.1821 1.04139C9.18913 1.04614 9.19578 1.05125 9.20443 1.05788C9.206 1.05909 9.20764 1.06034 9.20936 1.06166L9.16891 1.03344ZM9.16891 1.03344L9.08642 0.990148L9.08659 0.990217M9.08731 0.990521C9.08765 0.990637 9.08779 0.990689 9.08779 0.990689C9.08779 0.990689 9.08728 0.990502 9.08659 0.990217M9.08731 0.990521C9.08726 0.990502 9.0872 0.990481 9.08714 0.990459L9.08049 0.988031L9.08018 0.987908C9.06514 0.981867 9.05081 0.976583 9.03668 0.972261M9.08731 0.990521C9.08707 0.990419 9.08683 0.990318 9.08659 0.990217M9.08659 0.990217L9.03668 0.972261M9.03668 0.972261C9.03703 0.972345 9.03718 0.972383 9.03718 0.972384C9.03718 0.972384 9.03666 0.972253 9.03597 0.972045C9.0362 0.972117 9.03644 0.972189 9.03668 0.972261ZM9.03668 0.972261C9.03662 0.972246 9.03655 0.97223 9.03647 0.972212L9.03624 0.972157C9.03522 0.971916 9.03226 0.971215 9.02918 0.970314L9.04967 0.900212L9.02929 0.970348C9.01342 0.965735 8.99852 0.961821 8.98383 0.958881L8.99806 0.887244L8.98374 0.958863L9.03668 0.972261ZM13.802 5.88569V5.88709M13.802 5.88569V5.88709M13.802 5.88709V15.8749C13.8016 16.187 13.6775 16.4862 13.4568 16.7068C13.2362 16.9275 12.937 17.0516 12.6249 17.052H1.37447C1.06241 17.0516 0.763231 16.9275 0.542569 16.7068C0.321907 16.4862 0.197783 16.187 0.197426 15.8749L0.197426 2.12505L13.802 5.88709ZM1.37447 0.948037L1.37439 0.875V0.948037L1.37447 0.948037ZM8.80196 5.875V5.94804H8.875H12.3661H12.5424L12.4177 5.82336L8.92665 2.33222L8.80196 2.20754V2.38387V5.875Z" fill="#232B34" stroke="#232B34" stroke-width="0.146073"/>
</svg>
