<svg width="20" height="20" viewBox="0 0 20 20" fill="none" xmlns="http://www.w3.org/2000/svg">
<path d="M9.46865 12.3396C10.3072 11.7826 10.9442 10.9704 11.2853 10.0232C11.6264 9.07605 11.6535 8.04422 11.3625 7.08045C11.0716 6.11668 10.4781 5.27218 9.66993 4.67192C8.86173 4.07167 7.88175 3.74756 6.87503 3.74756C5.86831 3.74756 4.88833 4.07167 4.08013 4.67192C3.27193 5.27218 2.67845 6.11668 2.38753 7.08045C2.0966 8.04422 2.12369 9.07605 2.46478 10.0232C2.80587 10.9704 3.44283 11.7826 4.28141 12.3396C2.85188 12.867 1.61637 13.8163 0.738635 15.0618C0.672737 15.1554 0.633814 15.2653 0.626111 15.3795C0.618409 15.4937 0.642223 15.6079 0.694955 15.7095C0.747688 15.8111 0.827313 15.8963 0.925143 15.9557C1.02297 16.0152 1.13525 16.0466 1.24973 16.0466L12.5001 16.0462C12.6145 16.0462 12.7268 16.0147 12.8247 15.9553C12.9225 15.8958 13.0021 15.8106 13.0548 15.709C13.1075 15.6074 13.1313 15.4933 13.1236 15.379C13.1159 15.2648 13.077 15.1549 13.0111 15.0613C12.1333 13.8161 10.898 12.8669 9.46865 12.3396Z" fill="#AEAFBB"/>
<path d="M19.38 15.0613C18.5023 13.8161 17.2669 12.8669 15.8375 12.3397C16.7669 11.721 17.4449 10.791 17.7496 9.71704C18.0543 8.64304 17.9657 7.49554 17.4998 6.48104C17.0338 5.46654 16.221 4.65165 15.2078 4.18301C14.1945 3.71437 13.0472 3.62275 11.9724 3.92464C11.8749 3.95208 11.7854 4.00285 11.7119 4.07255C11.6383 4.14225 11.5827 4.22881 11.5501 4.32476C11.5174 4.4207 11.5085 4.52316 11.5242 4.62329C11.54 4.72342 11.5798 4.81822 11.6403 4.89953C12.3469 5.84859 12.753 6.98746 12.8065 8.16942C12.86 9.35138 12.5583 10.5223 11.9404 11.5313C11.8588 11.6643 11.8299 11.8231 11.8595 11.9764C11.8891 12.1296 11.9749 12.2663 12.1002 12.3595C12.3371 12.5358 12.5651 12.7239 12.7833 12.9231C12.7945 12.9354 12.8059 12.9475 12.8183 12.9591C13.6525 13.7303 14.3286 14.6565 14.8089 15.686C14.8592 15.7938 14.9392 15.885 15.0395 15.9488C15.1398 16.0127 15.2563 16.0466 15.3752 16.0466L18.869 16.0462C18.9835 16.0462 19.0958 16.0147 19.1936 15.9553C19.2914 15.8958 19.371 15.8106 19.4237 15.709C19.4764 15.6074 19.5002 15.4933 19.4925 15.379C19.4848 15.2648 19.4459 15.1549 19.38 15.0613L19.38 15.0613Z" fill="#AEAFBB"/>
</svg>
