<svg width="16" height="16" viewBox="0 0 16 16" fill="none" xmlns="http://www.w3.org/2000/svg">
<path d="M11.4376 0.1875H4.56256C3.40264 0.188814 2.29061 0.650172 1.47042 1.47036C0.650233 2.29055 0.188875 3.40258 0.187561 4.5625V11.4375C0.188875 12.5974 0.650233 13.7095 1.47042 14.5296C2.29061 15.3498 3.40264 15.8112 4.56256 15.8125H11.4376C12.5975 15.8112 13.7095 15.3498 14.5297 14.5296C15.3499 13.7095 15.8112 12.5974 15.8126 11.4375V4.5625C15.8112 3.40258 15.3499 2.29055 14.5297 1.47036C13.7095 0.650172 12.5975 0.188814 11.4376 0.1875ZM8.00006 11.75C7.25838 11.75 6.53336 11.5301 5.91667 11.118C5.29999 10.706 4.81934 10.1203 4.53551 9.43506C4.25168 8.74984 4.17742 7.99584 4.32212 7.26841C4.46681 6.54098 4.82396 5.8728 5.34841 5.34835C5.87286 4.8239 6.54104 4.46675 7.26847 4.32205C7.9959 4.17736 8.7499 4.25162 9.43512 4.53545C10.1203 4.81928 10.706 5.29993 11.1181 5.91661C11.5301 6.5333 11.7501 7.25832 11.7501 8C11.7489 8.99422 11.3535 9.94739 10.6505 10.6504C9.94745 11.3534 8.99428 11.7489 8.00006 11.75ZM12.0626 4.875C11.8771 4.875 11.6959 4.82002 11.5417 4.717C11.3875 4.61399 11.2674 4.46757 11.1964 4.29627C11.1255 4.12496 11.1069 3.93646 11.1431 3.7546C11.1792 3.57275 11.2685 3.4057 11.3996 3.27459C11.5308 3.14348 11.6978 3.05419 11.8797 3.01801C12.0615 2.98184 12.25 3.00041 12.4213 3.07136C12.5926 3.14232 12.739 3.26248 12.8421 3.41665C12.9451 3.57082 13.0001 3.75208 13.0001 3.9375C13.0001 4.18614 12.9013 4.4246 12.7255 4.60041C12.5497 4.77623 12.3112 4.875 12.0626 4.875Z" fill="#232B34"/>
</svg>
